<svg width="84" height="49" viewBox="0 0 84 49" fill="none" xmlns="http://www.w3.org/2000/svg">
<path d="M1.23605 14.5049C1.23605 11.1912 3.92234 8.50488 7.23605 8.50488H76.176C79.4897 8.50488 82.176 11.1912 82.176 14.5049V41.1617C82.176 44.4754 79.4897 47.1617 76.176 47.1617H56.5899C54.7014 47.1617 52.923 46.2725 51.7899 44.7617L48.5126 40.3919C45.3126 36.1252 38.9126 36.1252 35.7126 40.3919L32.4352 44.7617C31.3021 46.2725 29.5238 47.1617 27.6352 47.1617H7.23606C3.92235 47.1617 1.23605 44.4754 1.23605 41.1617V14.5049Z" stroke="#F5F5F5" stroke-width="2"/>
<path d="M3.4884 9.09137V9.09137C3.4884 4.62263 7.11103 1 11.5798 1H71.8318C76.3006 1 79.9232 4.62263 79.9232 9.09137V9.09137" stroke="#F5F5F5" stroke-width="2"/>
<circle cx="22.5957" cy="27.4271" r="7.53793" stroke="#F5F5F5" stroke-width="2"/>
<circle cx="60.8158" cy="27.4271" r="7.53793" stroke="#F5F5F5" stroke-width="2"/>
</svg>
